<svg xmlns="http://www.w3.org/2000/svg" xmlns:xlink="http://www.w3.org/1999/xlink" width="556" zoomAndPan="magnify" viewBox="0 0 416.88 184.499994" height="246" preserveAspectRatio="xMidYMid meet" version="1.0"><defs><g/><clipPath id="f577a6166c"><path d="M 0.503906 0 L 416.257812 0 L 416.257812 184 L 0.503906 184 Z M 0.503906 0 " clip-rule="nonzero"/></clipPath><clipPath id="4f228ed83a"><path d="M 90 94 L 326 94 L 326 107.707031 L 90 107.707031 Z M 90 94 " clip-rule="nonzero"/></clipPath></defs><g clip-path="url(#f577a6166c)"><path fill="#ffffff" d="M 0.503906 0 L 416.375 0 L 416.375 184 L 0.503906 184 Z M 0.503906 0 " fill-opacity="1" fill-rule="nonzero"/></g><path fill="#f266bd" d="M 318.546875 62.613281 C 321.28125 70.480469 323.074219 78.558594 323.929688 86.847656 C 324.09375 88.363281 324.214844 89.886719 324.3125 91.394531 C 291.515625 80.144531 222.292969 89.332031 208.070312 93.75 C 233.5625 78.390625 282.078125 57.75 318.546875 62.613281 Z M 318.546875 62.613281 " fill-opacity="1" fill-rule="nonzero"/><path fill="#307bc6" d="M 300.777344 46.160156 C 304.753906 52.753906 307.921875 59.71875 310.277344 67.054688 C 310.710938 68.394531 311.113281 69.75 311.488281 71.09375 C 279.535156 67.070312 240.179688 77.546875 212.445312 91.464844 C 210.945312 92.21875 209.488281 92.980469 208.066406 93.75 C 228.324219 75.089844 266.699219 48.597656 300.777344 46.160156 Z M 300.777344 46.160156 " fill-opacity="1" fill-rule="nonzero"/><path fill="#ffbc28" d="M 283.949219 13.582031 C 290.230469 18.851562 295.816406 24.773438 300.710938 31.351562 C 301.613281 32.546875 302.480469 33.773438 303.316406 34.996094 C 269.355469 41.566406 209.253906 92.503906 208.070312 93.75 C 222.421875 68.34375 250.007812 27.328125 283.949219 13.582031 Z M 283.949219 13.582031 " fill-opacity="1" fill-rule="nonzero"/><path fill="#ff8a28" d="M 278.734375 0 C 284.628906 3.398438 289.898438 7.582031 294.542969 12.558594 C 295.695312 13.648438 296.816406 14.769531 297.910156 15.898438 C 263.503906 28.574219 209.09375 92.25 208.070312 93.75 C 218.632812 64.867188 245.609375 20.132812 278.734375 0 Z M 278.734375 0 " fill-opacity="1" fill-rule="nonzero"/><path fill="#39bcb2" d="M 300.148438 24.667969 C 305.351562 30.695312 309.785156 37.242188 313.457031 44.3125 C 314.132812 45.601562 314.773438 46.910156 315.390625 48.214844 C 271.019531 48.585938 209.394531 92.726562 208.070312 93.75 C 225.695312 71.40625 265.570312 32.835938 300.148438 24.667969 Z M 300.148438 24.667969 " fill-opacity="1" fill-rule="nonzero"/><path fill="#39d6e5" d="M 97.589844 62.613281 C 94.855469 70.480469 93.0625 78.558594 92.207031 86.847656 C 92.042969 88.363281 91.921875 89.886719 91.824219 91.394531 C 124.621094 80.144531 193.84375 89.332031 208.070312 93.75 C 182.574219 78.390625 134.058594 57.75 97.589844 62.613281 Z M 97.589844 62.613281 " fill-opacity="1" fill-rule="nonzero"/><path fill="#ff8a28" d="M 115.359375 46.160156 C 111.382812 52.753906 108.214844 59.71875 105.859375 67.054688 C 105.425781 68.394531 105.023438 69.75 104.648438 71.09375 C 136.601562 67.070312 175.957031 77.546875 203.691406 91.464844 C 205.191406 92.21875 206.648438 92.980469 208.070312 93.75 C 187.8125 75.089844 149.4375 48.597656 115.359375 46.160156 Z M 115.359375 46.160156 " fill-opacity="1" fill-rule="nonzero"/><path fill="#f266bd" d="M 132.1875 13.582031 C 125.90625 18.851562 120.320312 24.773438 115.425781 31.351562 C 114.523438 32.546875 113.65625 33.773438 112.820312 34.996094 C 146.78125 41.566406 206.882812 92.503906 208.070312 93.75 C 193.714844 68.34375 166.128906 27.328125 132.1875 13.582031 Z M 132.1875 13.582031 " fill-opacity="1" fill-rule="nonzero"/><path fill="#ffbc28" d="M 137.402344 0 C 131.507812 3.398438 126.238281 7.582031 121.59375 12.558594 C 120.441406 13.648438 119.320312 14.769531 118.226562 15.898438 C 152.632812 28.574219 207.042969 92.25 208.070312 93.75 C 197.503906 64.867188 170.527344 20.132812 137.402344 0 Z M 137.402344 0 " fill-opacity="1" fill-rule="nonzero"/><path fill="#307bc6" d="M 115.988281 24.667969 C 110.785156 30.695312 106.351562 37.242188 102.679688 44.3125 C 102.003906 45.601562 101.363281 46.910156 100.746094 48.214844 C 145.117188 48.585938 206.742188 92.726562 208.070312 93.75 C 190.441406 71.40625 150.566406 32.835938 115.988281 24.667969 Z M 115.988281 24.667969 " fill-opacity="1" fill-rule="nonzero"/><g clip-path="url(#4f228ed83a)"><path fill="#307bc6" d="M 208.066406 107.640625 C 206.574219 107.691406 205.09375 107.574219 203.625 107.296875 C 202.152344 107.019531 200.734375 106.585938 199.359375 105.992188 C 197.988281 105.398438 196.695312 104.664062 195.484375 103.785156 C 194.277344 102.902344 193.175781 101.902344 192.1875 100.78125 L 90.542969 100.78125 L 90.542969 94.789062 L 195.390625 94.789062 L 196.269531 96.203125 C 196.957031 97.105469 197.742188 97.910156 198.625 98.621094 C 199.507812 99.332031 200.464844 99.921875 201.492188 100.394531 C 202.519531 100.871094 203.589844 101.214844 204.703125 101.425781 C 205.816406 101.636719 206.9375 101.710938 208.066406 101.648438 C 209.199219 101.710938 210.320312 101.636719 211.433594 101.425781 C 212.546875 101.214844 213.617188 100.871094 214.644531 100.398438 C 215.671875 99.921875 216.628906 99.332031 217.511719 98.621094 C 218.394531 97.910156 219.179688 97.105469 219.867188 96.203125 L 220.746094 94.789062 L 325.59375 94.789062 L 325.59375 100.78125 L 223.945312 100.78125 C 222.957031 101.902344 221.859375 102.902344 220.648438 103.785156 C 219.4375 104.664062 218.148438 105.398438 216.773438 105.992188 C 215.402344 106.585938 213.980469 107.019531 212.511719 107.296875 C 211.042969 107.578125 209.5625 107.691406 208.066406 107.640625 Z M 208.066406 107.640625 " fill-opacity="1" fill-rule="nonzero"/></g><g fill="#fb8c37" fill-opacity="1"><g transform="translate(83.994788, 158.630189)"><g><path d="M 26.703125 -36.125 C 26.703125 -36.46875 26.625 -36.828125 26.5625 -37.171875 C 26.484375 -37.515625 26.484375 -37.859375 26.34375 -38.203125 C 26.078125 -39.59375 25.59375 -40.90625 24.828125 -42.15625 C 24.125 -43.40625 23.234375 -44.59375 22.125 -45.5625 C 21.015625 -46.53125 19.765625 -47.359375 18.375 -47.921875 C 16.984375 -48.46875 15.46875 -48.75 14.078125 -48.8125 C 12.6875 -48.890625 11.375 -48.75 10.125 -48.609375 C 7.625 -48.1875 5.40625 -47.5 3.328125 -46.875 L 3.265625 -46.875 L 2.78125 -0.34375 L 2.78125 0.0625 C 4.375 0.203125 5.96875 0.203125 7.5625 0.140625 C 9.15625 0 10.8125 -0.203125 12.546875 -0.6875 C 13.390625 -0.90625 14.28125 -1.25 15.1875 -1.734375 L 15.875 -2.078125 C 16.15625 -2.28125 16.359375 -2.421875 16.578125 -2.5625 L 16.78125 -2.703125 L 17.265625 -3.1875 C 17.40625 -3.265625 17.546875 -3.390625 17.609375 -3.46875 L 17.828125 -3.75 C 19.203125 -5.203125 20.171875 -7.078125 20.671875 -9.078125 C 20.734375 -9.640625 20.796875 -10.125 20.875 -10.671875 C 20.875 -11.234375 20.875 -11.71875 20.796875 -12.28125 C 20.734375 -13.390625 20.453125 -14.421875 20.046875 -15.390625 C 19.5625 -16.4375 18.9375 -17.34375 18.171875 -18.171875 C 17.953125 -18.375 17.828125 -18.515625 17.609375 -18.71875 C 18.3125 -19.203125 19 -19.6875 19.6875 -20.25 C 21.703125 -21.90625 23.375 -24 24.609375 -26.34375 C 25.859375 -28.640625 26.625 -31.34375 26.765625 -34.046875 C 26.765625 -34.671875 26.765625 -35.4375 26.703125 -36.125 Z M 14.21875 -11.09375 C 14.21875 -10.890625 14.140625 -10.671875 14.140625 -10.46875 C 13.9375 -9.703125 13.515625 -8.875 12.890625 -8.25 L 12.828125 -8.109375 C 12.765625 -8.046875 12.765625 -8.046875 12.765625 -8.046875 C 12.6875 -8.046875 12.6875 -7.96875 12.6875 -7.96875 L 12.625 -7.96875 L 12.546875 -7.90625 C 12.484375 -7.828125 12.484375 -7.828125 12.40625 -7.765625 C 12.28125 -7.703125 12.203125 -7.703125 12.140625 -7.625 C 11.71875 -7.421875 11.296875 -7.21875 10.75 -7.078125 C 10.328125 -7 9.921875 -6.859375 9.5 -6.796875 L 9.5625 -14.625 C 9.640625 -14.625 9.703125 -14.625 9.78125 -14.625 C 10.328125 -14.625 10.8125 -14.625 11.296875 -14.5 C 11.78125 -14.421875 12.203125 -14.28125 12.546875 -14.140625 C 12.890625 -13.9375 13.171875 -13.734375 13.390625 -13.515625 C 13.59375 -13.3125 13.796875 -13.03125 13.9375 -12.6875 C 14.078125 -12.40625 14.140625 -12 14.21875 -11.65625 C 14.21875 -11.4375 14.21875 -11.296875 14.21875 -11.09375 Z M 20.109375 -34.328125 C 20.046875 -32.65625 19.5625 -31 18.71875 -29.40625 C 17.890625 -27.875 16.78125 -26.484375 15.390625 -25.375 C 13.796875 -24 11.78125 -22.953125 9.640625 -22.265625 L 9.84375 -41.75 C 10.265625 -41.890625 10.75 -41.953125 11.171875 -42.015625 C 12.96875 -42.296875 14.703125 -42.234375 15.875 -41.75 C 17.203125 -41.1875 18.3125 -40.21875 19.0625 -38.90625 C 19.421875 -38.203125 19.6875 -37.453125 19.90625 -36.6875 C 19.90625 -36.546875 19.96875 -36.34375 19.96875 -36.125 C 20.046875 -35.921875 20.046875 -35.71875 20.046875 -35.5 C 20.109375 -35.15625 20.109375 -34.734375 20.109375 -34.328125 Z M 20.109375 -34.328125 "/></g></g></g><g fill="#fb8c37" fill-opacity="1"><g transform="translate(113.673707, 158.630189)"><g><path d="M 26.703125 -24.0625 C 26.484375 -25.65625 25.9375 -27.109375 25.171875 -28.5 L 24.890625 -28.984375 C 24.75 -29.125 24.6875 -29.328125 24.546875 -29.546875 C 24.265625 -29.890625 24.0625 -30.171875 23.78125 -30.515625 C 23.15625 -31.140625 22.53125 -31.765625 21.84375 -32.25 C 21.15625 -32.734375 20.3125 -33.140625 19.5625 -33.421875 C 19.140625 -33.5625 18.71875 -33.703125 18.3125 -33.84375 C 17.890625 -33.90625 17.40625 -33.984375 17.0625 -34.046875 C 15.609375 -34.1875 14.140625 -34.1875 12.625 -33.984375 C 11.859375 -33.90625 11.09375 -33.703125 10.328125 -33.421875 C 9.5 -33.140625 8.59375 -32.796875 7.765625 -32.109375 C 6.515625 -31.0625 5.40625 -29.8125 4.640625 -28.4375 C 3.890625 -27.046875 3.390625 -25.515625 3.046875 -24.125 C 2.78125 -22.75 2.640625 -21.15625 2.84375 -19.5625 C 2.984375 -17.953125 3.46875 -16.359375 4.375 -14.90625 C 5.203125 -13.453125 6.375 -12.203125 7.765625 -11.296875 C 9.21875 -10.328125 10.671875 -9.78125 12.28125 -9.4375 C 13.796875 -9.15625 15.46875 -9.078125 17.125 -9.4375 C 18.71875 -9.78125 20.3125 -10.46875 21.640625 -11.4375 C 22.953125 -12.40625 24 -13.65625 24.828125 -14.984375 C 25.65625 -16.296875 26.28125 -17.75 26.625 -19.34375 C 26.90625 -20.875 26.96875 -22.46875 26.703125 -24.0625 Z M 20.109375 -20.734375 C 19.90625 -19.96875 19.625 -19.203125 19.203125 -18.515625 C 18.796875 -17.828125 18.234375 -17.265625 17.6875 -16.84375 C 16.5 -15.953125 15.109375 -15.671875 13.515625 -16.015625 C 12 -16.296875 10.8125 -17.125 10.125 -18.3125 C 9.78125 -18.859375 9.5 -19.5625 9.4375 -20.3125 C 9.359375 -21.078125 9.4375 -21.90625 9.5625 -22.8125 C 9.984375 -24.609375 10.671875 -25.9375 11.859375 -26.90625 C 11.921875 -26.90625 12.140625 -27.046875 12.484375 -27.1875 C 12.765625 -27.25 13.171875 -27.328125 13.59375 -27.390625 C 14.421875 -27.53125 15.390625 -27.53125 16.21875 -27.390625 C 16.359375 -27.390625 16.4375 -27.390625 16.5 -27.390625 C 16.578125 -27.390625 16.71875 -27.390625 16.78125 -27.328125 C 16.921875 -27.328125 17.0625 -27.25 17.203125 -27.1875 C 17.46875 -27.109375 17.75 -26.96875 18.03125 -26.765625 C 18.3125 -26.5625 18.515625 -26.34375 18.71875 -26.140625 C 19 -25.859375 19.140625 -25.65625 19.34375 -25.234375 C 19.765625 -24.546875 20.046875 -23.78125 20.171875 -23.015625 C 20.25 -22.265625 20.25 -21.5 20.109375 -20.734375 Z M 20.109375 -20.734375 "/></g></g></g><g fill="#fb8c37" fill-opacity="1"><g transform="translate(143.421969, 158.630189)"><g><path d="M 26.703125 -24.0625 C 26.484375 -25.65625 25.9375 -27.109375 25.171875 -28.5 L 24.890625 -28.984375 C 24.75 -29.125 24.6875 -29.328125 24.546875 -29.546875 C 24.265625 -29.890625 24.0625 -30.171875 23.78125 -30.515625 C 23.15625 -31.140625 22.53125 -31.765625 21.84375 -32.25 C 21.15625 -32.734375 20.3125 -33.140625 19.5625 -33.421875 C 19.140625 -33.5625 18.71875 -33.703125 18.3125 -33.84375 C 17.890625 -33.90625 17.40625 -33.984375 17.0625 -34.046875 C 15.609375 -34.1875 14.140625 -34.1875 12.625 -33.984375 C 11.859375 -33.90625 11.09375 -33.703125 10.328125 -33.421875 C 9.5 -33.140625 8.59375 -32.796875 7.765625 -32.109375 C 6.515625 -31.0625 5.40625 -29.8125 4.640625 -28.4375 C 3.890625 -27.046875 3.390625 -25.515625 3.046875 -24.125 C 2.78125 -22.75 2.640625 -21.15625 2.84375 -19.5625 C 2.984375 -17.953125 3.46875 -16.359375 4.375 -14.90625 C 5.203125 -13.453125 6.375 -12.203125 7.765625 -11.296875 C 9.21875 -10.328125 10.671875 -9.78125 12.28125 -9.4375 C 13.796875 -9.15625 15.46875 -9.078125 17.125 -9.4375 C 18.71875 -9.78125 20.3125 -10.46875 21.640625 -11.4375 C 22.953125 -12.40625 24 -13.65625 24.828125 -14.984375 C 25.65625 -16.296875 26.28125 -17.75 26.625 -19.34375 C 26.90625 -20.875 26.96875 -22.46875 26.703125 -24.0625 Z M 20.109375 -20.734375 C 19.90625 -19.96875 19.625 -19.203125 19.203125 -18.515625 C 18.796875 -17.828125 18.234375 -17.265625 17.6875 -16.84375 C 16.5 -15.953125 15.109375 -15.671875 13.515625 -16.015625 C 12 -16.296875 10.8125 -17.125 10.125 -18.3125 C 9.78125 -18.859375 9.5 -19.5625 9.4375 -20.3125 C 9.359375 -21.078125 9.4375 -21.90625 9.5625 -22.8125 C 9.984375 -24.609375 10.671875 -25.9375 11.859375 -26.90625 C 11.921875 -26.90625 12.140625 -27.046875 12.484375 -27.1875 C 12.765625 -27.25 13.171875 -27.328125 13.59375 -27.390625 C 14.421875 -27.53125 15.390625 -27.53125 16.21875 -27.390625 C 16.359375 -27.390625 16.4375 -27.390625 16.5 -27.390625 C 16.578125 -27.390625 16.71875 -27.390625 16.78125 -27.328125 C 16.921875 -27.328125 17.0625 -27.25 17.203125 -27.1875 C 17.46875 -27.109375 17.75 -26.96875 18.03125 -26.765625 C 18.3125 -26.5625 18.515625 -26.34375 18.71875 -26.140625 C 19 -25.859375 19.140625 -25.65625 19.34375 -25.234375 C 19.765625 -24.546875 20.046875 -23.78125 20.171875 -23.015625 C 20.25 -22.265625 20.25 -21.5 20.109375 -20.734375 Z M 20.109375 -20.734375 "/></g></g></g><g fill="#fb8c37" fill-opacity="1"><g transform="translate(173.17023, 158.630189)"><g><path d="M 23.234375 -10.75 C 20.109375 -13.3125 16.921875 -15.8125 13.65625 -18.171875 C 14.90625 -19 16.15625 -20.046875 17.203125 -21.078125 C 19.625 -23.578125 21.5 -26.5625 22.609375 -29.8125 L 16.296875 -32.03125 C 15.1875 -28.78125 12.96875 -25.796875 10.125 -23.78125 L 10.75 -45.28125 L 4.09375 -45.5625 L 2.90625 -5.484375 L 9.5625 -5.34375 L 9.78125 -12.765625 C 12.890625 -10.46875 16.015625 -8.109375 19 -5.609375 Z M 23.234375 -10.75 "/></g></g></g><g fill="#fb8c37" fill-opacity="1"><g transform="translate(199.381981, 158.630189)"><g><path d="M 19.6875 -46.8125 L 19.421875 -29.0625 C 19 -28.984375 18.515625 -28.984375 18.09375 -28.921875 C 16.78125 -28.78125 15.53125 -28.5625 14.28125 -28.4375 C 12.765625 -28.15625 11.171875 -27.953125 9.640625 -27.671875 C 9.5 -34.46875 9.4375 -41.328125 9.4375 -48.125 L 2.78125 -48.0625 C 2.78125 -32.03125 3.1875 -15.953125 3.890625 0.140625 L 10.546875 -0.140625 C 10.1875 -7.078125 9.984375 -14 9.78125 -20.9375 C 11.65625 -21.28125 13.453125 -21.5625 15.25 -21.84375 C 16.5 -21.984375 17.6875 -22.125 18.859375 -22.265625 C 19 -22.328125 19.140625 -22.328125 19.34375 -22.328125 L 19.0625 -5.546875 L 25.71875 -5.40625 L 26.34375 -46.734375 Z M 19.6875 -46.8125 "/></g></g></g><g fill="#fb8c37" fill-opacity="1"><g transform="translate(228.714193, 158.630189)"><g><path d="M 19.625 -17.125 C 19.625 -17.203125 19.625 -17.34375 19.625 -17.40625 C 19.5625 -19.0625 19.484375 -20.734375 19.421875 -22.390625 C 19.34375 -23.296875 19.28125 -24.125 19.203125 -25.03125 C 19.140625 -25.9375 19.0625 -26.84375 19 -27.8125 C 18.859375 -28.78125 18.65625 -29.8125 18.3125 -30.921875 C 17.953125 -31.96875 17.46875 -33.078125 16.71875 -34.109375 C 16.359375 -34.671875 15.953125 -35.15625 15.390625 -35.640625 C 14.90625 -36.125 14.28125 -36.546875 13.59375 -36.890625 C 12.34375 -37.515625 10.8125 -37.859375 9.296875 -37.71875 C 7.765625 -37.65625 6.3125 -37.03125 5.125 -36.0625 C 4.578125 -35.578125 4.09375 -35.09375 3.671875 -34.46875 L 3.53125 -34.25 L 3.390625 -34.109375 L 3.1875 -33.84375 C 3.046875 -33.625 2.984375 -33.421875 2.78125 -33.21875 C 2.5 -32.734375 2.15625 -32.109375 1.9375 -31.40625 C 1.671875 -30.65625 1.53125 -29.953125 1.53125 -29.40625 C 1.390625 -28.296875 1.390625 -27.390625 1.390625 -26.5625 L 8.046875 -26.34375 C 8.046875 -27.1875 8.046875 -28.078125 8.109375 -28.703125 C 8.1875 -28.984375 8.1875 -29.125 8.1875 -29.1875 C 8.25 -29.265625 8.328125 -29.40625 8.453125 -29.671875 L 8.734375 -30.171875 L 8.953125 -30.4375 C 8.953125 -30.4375 9.015625 -30.515625 9.015625 -30.515625 L 9.078125 -30.578125 C 9.15625 -30.71875 9.21875 -30.78125 9.359375 -30.859375 C 9.4375 -30.921875 9.5 -31 9.640625 -31.0625 C 9.703125 -31.0625 9.78125 -31.140625 9.921875 -31.140625 C 10.125 -31.140625 10.328125 -31.0625 10.609375 -30.921875 C 10.75 -30.859375 11.03125 -30.65625 11.296875 -30.296875 C 11.515625 -29.953125 11.78125 -29.46875 11.921875 -28.84375 C 12.140625 -28.296875 12.28125 -27.671875 12.34375 -26.90625 C 12.484375 -26.28125 12.484375 -25.65625 12.546875 -24.96875 C 11.78125 -25.109375 11.03125 -25.171875 10.265625 -25.109375 C 8.109375 -24.890625 6.171875 -24.203125 4.4375 -22.75 C 4.015625 -22.328125 3.609375 -21.90625 3.265625 -21.5 C 2.90625 -21.078125 2.640625 -20.59375 2.359375 -20.109375 C 1.875 -19.140625 1.53125 -18.03125 1.390625 -16.921875 C 1.3125 -15.8125 1.390625 -14.5625 1.734375 -13.453125 C 2.15625 -12.28125 2.78125 -11.234375 3.53125 -10.40625 C 5.0625 -8.734375 7.140625 -7.765625 9.359375 -7.484375 C 9.640625 -7.484375 9.921875 -7.484375 10.265625 -7.484375 C 10.546875 -7.484375 10.75 -7.484375 11.03125 -7.484375 C 11.515625 -7.5625 12 -7.625 12.484375 -7.703125 C 12.625 -7.765625 12.828125 -7.765625 12.96875 -7.828125 C 12.96875 -7.484375 12.96875 -7.140625 12.890625 -6.796875 L 19.5625 -6.59375 C 19.6875 -10.125 19.6875 -13.59375 19.625 -17.125 Z M 12.0625 -14.625 C 11.78125 -14.421875 11.515625 -14.28125 11.09375 -14.21875 C 10.890625 -14.21875 10.671875 -14.140625 10.46875 -14.140625 C 10.40625 -14.140625 10.265625 -14.140625 10.1875 -14.140625 C 10.125 -14.140625 10.0625 -14.140625 9.984375 -14.140625 C 9.4375 -14.21875 8.8125 -14.5 8.453125 -14.90625 C 8.25 -15.109375 8.1875 -15.328125 8.109375 -15.46875 C 8.046875 -15.671875 7.96875 -15.953125 8.046875 -16.21875 C 8.109375 -16.71875 8.390625 -17.34375 8.8125 -17.6875 C 9.296875 -18.09375 9.984375 -18.375 10.671875 -18.453125 C 11.09375 -18.453125 11.375 -18.453125 11.65625 -18.375 C 11.921875 -18.3125 12.203125 -18.171875 12.34375 -18.03125 C 12.625 -17.828125 12.890625 -17.34375 12.96875 -16.984375 C 12.96875 -16.984375 12.96875 -16.921875 12.96875 -16.921875 C 12.96875 -16.5 12.96875 -16.09375 12.96875 -15.609375 C 12.890625 -15.390625 12.828125 -15.25 12.6875 -15.109375 C 12.546875 -14.90625 12.34375 -14.765625 12.0625 -14.625 Z M 12.0625 -14.625 "/></g></g></g><g fill="#fb8c37" fill-opacity="1"><g transform="translate(251.389451, 158.630189)"><g><path d="M 16.921875 -32.59375 C 15.953125 -29.40625 15.109375 -26.21875 14.21875 -23.09375 L 13.59375 -20.734375 L 13.25 -19.625 L 13.109375 -19.0625 L 11.859375 -23.5 C 10.953125 -26.703125 10.125 -29.890625 9.359375 -33.078125 L 2.90625 -31.484375 C 3.671875 -28.21875 4.5 -24.96875 5.40625 -21.78125 L 6.109375 -19.34375 L 6.859375 -16.578125 L 7.5625 -14.21875 L 8.25 -11.859375 C 8.734375 -10.265625 9.21875 -8.671875 9.640625 -7.140625 L 15.953125 -6.9375 L 16.78125 -9.15625 L 17.203125 -10.265625 L 17.546875 -11.375 C 18.09375 -12.828125 18.578125 -14.421875 19.0625 -15.953125 L 19.625 -17.75 L 19.96875 -18.9375 L 20.671875 -21.28125 C 21.5 -24.484375 22.390625 -27.59375 23.296875 -30.71875 Z M 16.921875 -32.59375 "/></g></g></g><g fill="#fb8c37" fill-opacity="1"><g transform="translate(277.670561, 158.630189)"><g><path d="M 17.40625 -15.109375 C 17.34375 -14.84375 17.203125 -14.5625 16.984375 -14.28125 C 16.84375 -14.078125 16.640625 -13.875 16.5 -13.65625 C 16.296875 -13.515625 16.15625 -13.390625 16.015625 -13.390625 C 16.015625 -13.3125 15.953125 -13.3125 15.875 -13.3125 L 15.734375 -13.25 L 15.53125 -13.171875 C 15.390625 -13.171875 15.328125 -13.109375 15.25 -13.109375 L 14.984375 -13.03125 C 14.703125 -12.96875 14.359375 -12.96875 14.078125 -12.96875 C 13.453125 -12.96875 12.828125 -13.109375 12.28125 -13.453125 C 11.65625 -13.734375 11.09375 -14.21875 10.671875 -14.765625 C 10.1875 -15.25 9.84375 -15.953125 9.640625 -16.578125 C 9.5625 -16.71875 9.5625 -16.84375 9.5625 -16.984375 L 9.5 -17.0625 C 9.5 -17.125 9.5 -17.203125 9.5 -17.265625 C 9.5 -17.34375 9.5 -17.46875 9.4375 -17.609375 C 9.4375 -17.75 9.4375 -17.890625 9.4375 -18.03125 C 12.28125 -18.234375 15.109375 -18.453125 17.953125 -18.578125 L 24.609375 -18.796875 C 24.609375 -19.484375 24.546875 -20.109375 24.484375 -20.796875 C 24.40625 -21.421875 24.265625 -22.046875 24.203125 -22.671875 C 23.921875 -23.859375 23.640625 -25.109375 23.234375 -26.421875 C 23.015625 -27.046875 22.75 -27.734375 22.390625 -28.5 C 22.265625 -28.640625 22.1875 -28.84375 22.046875 -29.0625 L 21.84375 -29.328125 L 21.78125 -29.46875 L 21.703125 -29.609375 C 21.421875 -29.890625 21.21875 -30.234375 20.9375 -30.515625 C 20.453125 -31.140625 19.828125 -31.6875 19.0625 -32.171875 C 18.3125 -32.734375 17.46875 -33.140625 16.578125 -33.359375 C 14.703125 -33.90625 12.96875 -33.765625 11.375 -33.28125 C 10.546875 -33.078125 9.78125 -32.734375 9.015625 -32.3125 C 8.25 -31.828125 7.625 -31.34375 7.078125 -30.71875 C 5.890625 -29.546875 5.0625 -28.21875 4.5 -26.90625 C 3.953125 -25.65625 3.46875 -24.40625 3.1875 -23.015625 C 2.90625 -21.703125 2.78125 -20.3125 2.78125 -19 C 2.703125 -18.3125 2.78125 -17.609375 2.84375 -16.921875 C 2.84375 -16.71875 2.84375 -16.578125 2.90625 -16.4375 C 2.90625 -16.296875 2.90625 -16.21875 2.90625 -16.15625 L 2.984375 -15.8125 C 3.046875 -15.390625 3.125 -14.984375 3.265625 -14.625 C 3.75 -13.03125 4.5 -11.65625 5.546875 -10.46875 C 6.515625 -9.296875 7.765625 -8.25 9.15625 -7.484375 C 10.609375 -6.796875 12.28125 -6.3125 13.9375 -6.3125 C 14.703125 -6.3125 15.53125 -6.375 16.359375 -6.515625 L 16.921875 -6.65625 C 17.125 -6.71875 17.265625 -6.796875 17.46875 -6.796875 L 18.03125 -7 L 18.3125 -7.140625 C 18.375 -7.140625 18.515625 -7.140625 18.578125 -7.21875 C 19.484375 -7.625 20.3125 -8.1875 20.9375 -8.734375 C 21.640625 -9.359375 22.1875 -9.984375 22.609375 -10.671875 C 23.015625 -11.4375 23.4375 -12.140625 23.71875 -12.890625 C 24 -13.734375 24.203125 -14.5625 24.203125 -15.53125 L 17.609375 -15.875 C 17.546875 -15.734375 17.546875 -15.390625 17.40625 -15.109375 Z M 11.71875 -26 C 11.921875 -26.21875 12.203125 -26.421875 12.40625 -26.5625 C 12.6875 -26.703125 12.96875 -26.84375 13.25 -26.90625 C 13.796875 -27.046875 14.421875 -27.046875 14.765625 -26.96875 C 15.109375 -26.84375 15.46875 -26.625 15.953125 -26.140625 C 16.09375 -26 16.15625 -25.859375 16.296875 -25.71875 L 16.359375 -25.65625 C 16.359375 -25.59375 16.359375 -25.59375 16.359375 -25.59375 C 16.359375 -25.59375 16.359375 -25.59375 16.359375 -25.515625 C 16.4375 -25.515625 16.4375 -25.453125 16.5 -25.375 C 16.640625 -25.109375 16.78125 -24.75 16.921875 -24.265625 C 16.921875 -24.265625 16.921875 -24.265625 16.921875 -24.203125 C 14.765625 -24.125 12.546875 -24 10.40625 -23.859375 C 10.46875 -23.921875 10.46875 -24.0625 10.546875 -24.203125 C 10.890625 -24.96875 11.296875 -25.59375 11.71875 -26 Z M 11.71875 -26 "/></g></g></g><g fill="#fb8c37" fill-opacity="1"><g transform="translate(305.130496, 158.630189)"><g><path d="M 23.71875 -19.5625 C 23.640625 -20.671875 23.578125 -21.78125 23.4375 -22.953125 C 23.4375 -23.5 23.375 -24.0625 23.296875 -24.609375 L 23.15625 -25.453125 L 23.15625 -25.859375 L 23.09375 -26.34375 C 22.890625 -27.59375 22.609375 -28.921875 21.984375 -30.296875 C 21.703125 -30.921875 21.359375 -31.6875 20.875 -32.3125 C 20.390625 -33 19.828125 -33.703125 19.0625 -34.25 C 18.65625 -34.53125 18.3125 -34.734375 17.890625 -34.953125 C 17.46875 -35.15625 16.921875 -35.359375 16.4375 -35.5 C 15.390625 -35.78125 14.359375 -35.78125 13.453125 -35.640625 C 12.484375 -35.5 11.65625 -35.15625 10.890625 -34.734375 C 10.46875 -34.53125 10.125 -34.328125 9.78125 -34.046875 C 9.703125 -33.984375 9.640625 -33.90625 9.5625 -33.90625 C 9.5625 -34.671875 9.5625 -35.4375 9.5625 -36.203125 L 2.90625 -36.203125 C 2.90625 -26.90625 3.046875 -17.6875 2.78125 -8.53125 L 9.4375 -8.328125 C 9.4375 -9.5625 9.5 -10.75 9.5 -12 C 9.78125 -16.015625 10.609375 -20.046875 11.71875 -24.125 L 12.140625 -25.65625 C 12.28125 -26.078125 12.40625 -26.484375 12.546875 -26.84375 C 12.828125 -27.59375 13.171875 -28.15625 13.59375 -28.5 C 13.65625 -28.640625 13.734375 -28.640625 13.796875 -28.703125 C 13.875 -28.78125 13.9375 -28.84375 14.078125 -28.921875 C 14.21875 -28.984375 14.421875 -29.0625 14.5625 -29.0625 C 14.703125 -29.0625 14.765625 -29.0625 14.765625 -29.0625 C 14.765625 -29.0625 14.90625 -28.984375 15.046875 -28.921875 C 15.25 -28.703125 15.609375 -28.296875 15.875 -27.671875 C 16.15625 -27.046875 16.359375 -26.21875 16.5 -25.375 L 16.5 -25.03125 L 16.578125 -24.609375 L 16.640625 -23.859375 C 16.71875 -23.375 16.78125 -22.8125 16.84375 -22.328125 C 16.921875 -21.28125 16.984375 -20.25 17.0625 -19.140625 C 17.34375 -14.984375 17.34375 -10.671875 17.46875 -6.3125 L 24.125 -6.453125 C 24 -10.75 24 -15.109375 23.71875 -19.5625 Z M 23.71875 -19.5625 "/></g></g></g></svg>