<svg xmlns="http://www.w3.org/2000/svg" xmlns:xlink="http://www.w3.org/1999/xlink" width="500" zoomAndPan="magnify" viewBox="0 0 375 374.999991" height="500" preserveAspectRatio="xMidYMid meet" version="1.0"><defs><clipPath id="f9b7099770"><path d="M 187 96.601562 L 331 96.601562 L 331 246 L 187 246 Z M 187 96.601562 " clip-rule="nonzero"/></clipPath><clipPath id="61d90a2b36"><path d="M 45 96.601562 L 188 96.601562 L 188 246 L 45 246 Z M 45 96.601562 " clip-rule="nonzero"/></clipPath><clipPath id="6ea7782501"><path d="M 1 247 L 375 247 L 375 267.601562 L 1 267.601562 Z M 1 247 " clip-rule="nonzero"/></clipPath></defs><path fill="#f266bd" d="M 362.835938 196.007812 C 367.175781 208.5 370.019531 221.324219 371.375 234.480469 C 371.636719 236.886719 371.828125 239.308594 371.984375 241.703125 C 319.953125 223.839844 210.128906 238.425781 187.5625 245.441406 C 228.011719 221.054688 304.980469 188.285156 362.835938 196.007812 Z M 362.835938 196.007812 " fill-opacity="1" fill-rule="nonzero"/><path fill="#307bc6" d="M 334.644531 169.886719 C 340.957031 180.355469 345.980469 191.410156 349.714844 203.054688 C 350.40625 205.183594 351.042969 207.335938 351.640625 209.472656 C 300.945312 203.085938 238.507812 219.71875 194.503906 241.8125 C 192.128906 243.007812 189.8125 244.214844 187.5625 245.441406 C 219.699219 215.816406 280.578125 173.757812 334.644531 169.886719 Z M 334.644531 169.886719 " fill-opacity="1" fill-rule="nonzero"/><path fill="#ffbc28" d="M 307.949219 118.167969 C 317.910156 126.53125 326.773438 135.933594 334.542969 146.375 C 335.96875 148.277344 337.34375 150.21875 338.675781 152.160156 C 284.796875 162.59375 189.445312 243.464844 187.5625 245.441406 C 210.332031 205.109375 254.097656 139.988281 307.949219 118.167969 Z M 307.949219 118.167969 " fill-opacity="1" fill-rule="nonzero"/><g clip-path="url(#f9b7099770)"><path fill="#ff8a28" d="M 299.675781 96.601562 C 309.023438 101.996094 317.382812 108.640625 324.75 116.539062 C 326.578125 118.269531 328.363281 120.054688 330.097656 121.839844 C 275.511719 141.964844 189.1875 243.0625 187.5625 245.441406 C 204.320312 199.589844 247.121094 128.5625 299.675781 96.601562 Z M 299.675781 96.601562 " fill-opacity="1" fill-rule="nonzero"/></g><path fill="#39bcb2" d="M 333.648438 135.765625 C 341.898438 145.335938 348.9375 155.730469 354.757812 166.953125 C 355.832031 169 356.851562 171.078125 357.828125 173.148438 C 287.433594 173.734375 189.667969 243.816406 187.5625 245.441406 C 215.527344 209.964844 278.789062 148.734375 333.648438 135.765625 Z M 333.648438 135.765625 " fill-opacity="1" fill-rule="nonzero"/><path fill="#39d6e5" d="M 12.285156 196.007812 C 7.949219 208.5 5.101562 221.324219 3.746094 234.480469 C 3.488281 236.886719 3.292969 239.308594 3.140625 241.703125 C 55.167969 223.839844 164.996094 238.425781 187.5625 245.441406 C 147.113281 221.054688 70.140625 188.285156 12.285156 196.007812 Z M 12.285156 196.007812 " fill-opacity="1" fill-rule="nonzero"/><path fill="#ff8a28" d="M 40.480469 169.886719 C 34.167969 180.355469 29.144531 191.410156 25.410156 203.054688 C 24.714844 205.183594 24.078125 207.335938 23.484375 209.472656 C 74.175781 203.085938 136.613281 219.71875 180.617188 241.8125 C 182.996094 243.007812 185.308594 244.214844 187.5625 245.441406 C 155.421875 215.816406 94.542969 173.757812 40.480469 169.886719 Z M 40.480469 169.886719 " fill-opacity="1" fill-rule="nonzero"/><path fill="#f266bd" d="M 67.175781 118.167969 C 57.214844 126.53125 48.347656 135.933594 40.582031 146.375 C 39.15625 148.277344 37.777344 150.21875 36.449219 152.160156 C 90.328125 162.59375 185.679688 243.464844 187.5625 245.441406 C 164.789062 205.109375 121.023438 139.988281 67.175781 118.167969 Z M 67.175781 118.167969 " fill-opacity="1" fill-rule="nonzero"/><g clip-path="url(#61d90a2b36)"><path fill="#ffbc28" d="M 75.449219 96.601562 C 66.097656 101.996094 57.738281 108.640625 50.371094 116.539062 C 48.542969 118.269531 46.761719 120.054688 45.027344 121.839844 C 99.613281 141.964844 185.9375 243.0625 187.5625 245.441406 C 170.804688 199.589844 128.003906 128.5625 75.449219 96.601562 Z M 75.449219 96.601562 " fill-opacity="1" fill-rule="nonzero"/></g><path fill="#307bc6" d="M 41.476562 135.765625 C 33.222656 145.335938 26.1875 155.730469 20.363281 166.953125 C 19.289062 169 18.269531 171.078125 17.296875 173.148438 C 87.6875 173.734375 185.457031 243.816406 187.5625 245.441406 C 159.59375 209.964844 96.335938 148.734375 41.476562 135.765625 Z M 41.476562 135.765625 " fill-opacity="1" fill-rule="nonzero"/><g clip-path="url(#6ea7782501)"><path fill="#307bc6" d="M 187.5625 267.492188 C 185.191406 267.574219 182.839844 267.390625 180.507812 266.949219 C 178.179688 266.507812 175.925781 265.816406 173.746094 264.875 C 171.566406 263.933594 169.519531 262.765625 167.597656 261.371094 C 165.679688 259.972656 163.933594 258.386719 162.367188 256.601562 L 1.109375 256.601562 L 1.109375 247.089844 L 167.449219 247.089844 L 168.839844 249.339844 C 169.929688 250.769531 171.175781 252.046875 172.578125 253.175781 C 173.980469 254.300781 175.496094 255.238281 177.128906 255.992188 C 178.761719 256.746094 180.457031 257.289062 182.222656 257.628906 C 183.988281 257.964844 185.765625 258.082031 187.5625 257.980469 C 189.355469 258.082031 191.132812 257.964844 192.898438 257.628906 C 194.664062 257.292969 196.363281 256.746094 197.992188 255.992188 C 199.625 255.238281 201.140625 254.300781 202.542969 253.175781 C 203.945312 252.050781 205.191406 250.769531 206.28125 249.339844 L 207.671875 247.089844 L 374.015625 247.089844 L 374.015625 256.601562 L 212.753906 256.601562 C 211.183594 258.386719 209.441406 259.976562 207.519531 261.371094 C 205.601562 262.765625 203.550781 263.933594 201.375 264.878906 C 199.195312 265.820312 196.941406 266.511719 194.613281 266.949219 C 192.28125 267.390625 189.929688 267.574219 187.5625 267.492188 Z M 187.5625 267.492188 " fill-opacity="1" fill-rule="nonzero"/></g></svg>